<?xml version="1.0" encoding="utf-8"?>
<!-- Generator: Adobe Illustrator 16.0.3, SVG Export Plug-In . SVG Version: 6.00 Build 0)  -->
<!DOCTYPE svg PUBLIC "-//W3C//DTD SVG 1.1//EN" "http://www.w3.org/Graphics/SVG/1.1/DTD/svg11.dtd">
<svg version="1.1" id="Ebene_1" xmlns="http://www.w3.org/2000/svg" xmlns:xlink="http://www.w3.org/1999/xlink" x="0px" y="0px"
	 width="1260.168px" height="276.922px" viewBox="0 0 1260.168 276.922" enable-background="new 0 0 1260.168 276.922"
	 xml:space="preserve">
<g>
	<polygon fill="#010202" points="775.128,4.114 759.342,4.114 708.261,142.26 709.015,4.114 696.253,4.114 696.253,271.885 
		709.015,271.885 708.261,175.021 725.046,133.75 761.305,271.885 777.144,271.885 733.789,112.218 	"/>
	<polygon fill="#010202" points="450.495,258.862 450.495,141.27 508.555,141.27 508.555,127.238 450.495,127.238 450.495,16.619 
		513.269,16.619 513.269,4.639 436.688,4.639 436.688,271.885 516.047,271.885 515.3,258.862 	"/>
	<path fill="#010202" d="M372.26,103.796L200.313,225.225l-83.094-58.539L221.44,97.318l-0.087-9.152l-27.725-19.154L82.747,141.045
		l-21.619-14.537l132.501-87.001l78.865,53.609l-101.242,69.575l0.176,8.822l28.886,19.969l141.245-97.274l0.175-9.55L229.81,10.714
		c0,0-17.399-10.714-36.181-10.714c-18.815,0-32.066,5.973-42.347,12.453L19.504,96.64c0,0-19.504,11.668-19.504,31.902
		c0,16.356,6.477,24.874,14.241,30.64c6.945,5.176,144.073,106.4,144.073,106.4s16.239,11.34,40.786,11.34
		c23.642,0,39.854-14.1,39.854-14.1l135.799-99.768c0,0,15.83-9.047,14.24-35.52C388.123,112.912,372.26,103.796,372.26,103.796z"/>
	<polygon fill="#010202" points="599.404,137.745 599.872,271.885 613.678,271.885 613.678,3.593 599.404,3.593 	"/>
	<polygon fill="#010202" points="1238.409,137.745 1216.32,3.853 1201.301,3.853 1181.067,137.745 1160.751,271.885 
		1175.322,271.885 1204.321,57.913 1208.107,30.39 1243.845,271.885 1260.168,271.885 	"/>
	<polygon fill="#010202" points="1080.815,207.059 1029.726,4.114 1015.191,4.639 1015.191,271.885 1028.979,271.885 
		1028.979,58.643 1082.779,271.885 1093.805,271.885 1093.805,4.114 1080.815,4.114 	"/>
	<path fill="#010202" d="M934.857,20.614l-0.558-1.998l-0.987-2.257l-0.747-1.962l-1.233-2.293l-1.024-1.734l-1.51-1.512
		l-1.738-1.733l-2.275-1.271l-1.961-0.988l-1.287-0.225l-1.25-0.524l-1.492-0.261h-1.477l-2.987-0.261h-34.07l-3.022,0.261
		l-2.985,0.261l-2.468,0.991l-2.274,1.007l-2.031,1.477l-1.979,1.267l-1.529,1.512l-1.477,1.996l-1.266,2.26l-0.991,2.223
		l-1.005,2.517l-0.47,2.238l-0.782,2.538l-0.746,2.726v2.517l-0.245,2.746v211.453l0.245,2.516v2.484l0.746,2.518l0.261,2.5
		l0.746,2.279l1.024,2.238l0.989,2.518l1.235,2.223l1.265,2.032l1.738,1.491l1.511,1.74l1.996,1.249l2.259,0.989l2.742,1.008
		l3.024,0.26l2.743,0.262h29.781l3.006-0.262l2.759-0.26l2.258-0.729l1.215-0.541l1.009-0.466l2.257-1.269l1.287-0.764l1.005-0.488
		l1.964-1.996l1.995-1.771l1.512-2.223l1.771-1.997l1.008-2.257l1.232-2.518l0.728-2.744l0.558-2.518l0.451-2.762v-2.744
		l0.296-154.893v-63.56l-0.296-2.257L934.857,20.614z M923.604,236.565l-0.52,2.761l-0.261,2.519l-0.244,2.258l-0.487,2.221
		l-1.022,4.03l-1.269,3.245l-0.488,1.27l-1.022,1.477l-0.746,0.26l-0.749,0.729l-1.474,0.538l-1.771,0.73l-1.772,0.521h-0.974
		l-1.511,0.485h-22.522l-2.501-0.485l-2.274-0.521l-2.481-0.73l-1.513-1.005l-1.719-0.988l-1.288-1.271l-1.004-1.248l-1.477-3.753
		l-0.73-1.771l-0.261-1.997l-0.781-2.257v-2.465l-0.261-2.521V38.898l0.261-2.257v-2.742l0.262-2.259l0.52-1.997l0.488-2.257
		l0.503-1.511l0.521-1.997l0.956-1.736l1.004-1.268l1.027-1.25l0.972-1.01l1.008-0.99l1.251-0.779l1.25-0.487l1.737-0.261h27.801
		l2.26,0.261l2.029,0.487l1.737,0.779l1.478,0.766l1.249,0.974l1.008,1.25l0.746,1.265l0.522,1.738l0.728,1.51l1.025,4.255
		l0.261,2.257v2.259l0.521,5.242L923.604,236.565L923.604,236.565z"/>
</g>
</svg>
